<svg width="78" height="79" viewBox="0 0 78 79" fill="none" xmlns="http://www.w3.org/2000/svg">
<g clip-path="url(#clip0_50_5)">
<path d="M77.2059 39.5C77.2059 18.1804 59.9226 0.897095 38.6029 0.897095C17.2833 0.897095 0 18.1801 0 39.5C0 58.7677 14.1166 74.7382 32.5712 77.634V50.6587H22.7697V39.5H32.5712V30.9953C32.5712 21.3205 38.3345 15.9764 47.152 15.9764C51.3757 15.9764 55.7933 16.7303 55.7933 16.7303V26.2303H50.9257C46.1299 26.2303 44.6346 29.206 44.6346 32.259V39.5H55.3409L53.6294 50.6587H44.6346V77.634C63.0893 74.7382 77.2059 58.768 77.2059 39.5Z" fill="#1877F2"/>
<path d="M53.6295 50.6586L55.341 39.5H44.6347V32.2589C44.6347 29.2057 46.1303 26.2302 50.9258 26.2302H55.7934V16.7303C55.7934 16.7303 51.3758 15.9763 47.1521 15.9763C38.3346 15.9763 32.5713 21.3204 32.5713 30.9953V39.5H22.7698V50.6586H32.5713V77.634C34.5666 77.9467 36.5833 78.1035 38.603 78.1029C40.6227 78.1035 42.6394 77.9467 44.6347 77.634V50.6586H53.6295Z" fill="white"/>
</g>
<defs>
<clipPath id="clip0_50_5">
<rect width="77.2059" height="77.2059" fill="white" transform="translate(0 0.897095)"/>
</clipPath>
</defs>
</svg>
