<svg width="106" height="105" viewBox="0 0 106 105" fill="none" xmlns="http://www.w3.org/2000/svg">
<path d="M52.7942 41.65C50.6483 41.65 48.5505 42.2863 46.7662 43.4785C44.982 44.6708 43.5913 46.3653 42.7701 48.3479C41.9489 50.3305 41.734 52.512 42.1527 54.6167C42.5713 56.7214 43.6047 58.6547 45.1221 60.1721C46.6395 61.6895 48.5728 62.7229 50.6775 63.1415C52.7821 63.5602 54.9637 63.3453 56.9463 62.5241C58.9289 61.7029 60.6234 60.3122 61.8156 58.5279C63.0078 56.7437 63.6442 54.6459 63.6442 52.5C63.6442 51.0752 63.3635 49.6643 62.8183 48.3479C62.273 47.0315 61.4738 45.8354 60.4663 44.8279C59.4588 43.8204 58.2627 43.0212 56.9463 42.4759C55.6299 41.9306 54.219 41.65 52.7942 41.65ZM96.2379 30.9312C96.2149 27.5527 95.5928 24.205 94.4004 21.0437C93.5223 18.7305 92.1636 16.6298 90.414 14.8802C88.6644 13.1306 86.5637 11.7719 84.2504 10.8937C81.0892 9.7014 77.7415 9.07927 74.3629 9.05625C68.7192 8.75 67.0567 8.75 52.7942 8.75C38.5317 8.75 36.8692 8.75 31.2254 9.05625C27.8469 9.07927 24.4992 9.7014 21.3379 10.8937C19.0247 11.7719 16.924 13.1306 15.1744 14.8802C13.4248 16.6298 12.0661 18.7305 11.1879 21.0437C9.99559 24.205 9.37346 27.5527 9.35044 30.9312C9.04419 36.575 9.04419 38.2375 9.04419 52.5C9.04419 66.7625 9.04419 68.425 9.35044 74.0687C9.39753 77.4592 10.0188 80.8171 11.1879 84C12.0622 86.3026 13.4198 88.3912 15.1692 90.125C16.9113 91.8851 19.0165 93.2438 21.3379 94.1062C24.4992 95.2986 27.8469 95.9207 31.2254 95.9437C36.8692 96.25 38.5317 96.25 52.7942 96.25C67.0567 96.25 68.7192 96.25 74.3629 95.9437C77.7415 95.9207 81.0892 95.2986 84.2504 94.1062C86.5719 93.2438 88.6771 91.8851 90.4192 90.125C92.1686 88.3912 93.5262 86.3026 94.4004 84C95.5916 80.8232 96.2136 77.4614 96.2379 74.0687C96.5442 68.425 96.5442 66.7625 96.5442 52.5C96.5442 38.2375 96.5442 36.575 96.2379 30.9312ZM85.1254 65.9312C84.985 68.6311 84.4088 71.2904 83.4192 73.8062C82.5699 75.9049 81.3072 77.8113 79.7063 79.4122C78.1055 81.013 76.1991 82.2757 74.1004 83.125C71.5608 84.0595 68.8866 84.5766 66.1817 84.6562H39.4067C36.7018 84.5766 34.0276 84.0595 31.4879 83.125C29.3184 82.3188 27.3592 81.0325 25.7567 79.3625C24.1715 77.793 22.9473 75.8969 22.1692 73.8062C21.231 71.2692 20.7281 68.592 20.6817 65.8875V39.1125C20.7281 36.408 21.231 33.7307 22.1692 31.1937C22.9754 29.0242 24.2616 27.065 25.9317 25.4625C27.5081 23.8859 29.4022 22.6629 31.4879 21.875C34.0276 20.9405 36.7018 20.4234 39.4067 20.3437H66.1817C68.8866 20.4234 71.5608 20.9405 74.1004 21.875C76.27 22.6812 78.2292 23.9674 79.8317 25.6375C81.4169 27.207 82.6411 29.1031 83.4192 31.1937C84.3537 33.7334 84.8708 36.4076 84.9504 39.1125V52.5C84.9504 61.5125 85.2567 62.4312 85.1254 65.8875V65.9312ZM78.1254 33.3812C77.6045 31.9681 76.7832 30.6847 75.7182 29.6197C74.6532 28.5547 73.3699 27.7334 71.9567 27.2125C70.0162 26.5399 67.9726 26.2141 65.9192 26.25H39.6692C37.6054 26.2702 35.5614 26.6553 33.6317 27.3875C32.2401 27.8847 30.9703 28.6725 29.9067 29.6984C28.8431 30.7243 28.0101 31.9648 27.4629 33.3375C26.8276 35.286 26.5172 37.3257 26.5442 39.375V65.625C26.5876 67.6865 26.9719 69.7266 27.6817 71.6625C28.2026 73.0757 29.0239 74.3591 30.0889 75.4241C31.1539 76.4891 32.4372 77.3103 33.8504 77.8312C35.7171 78.5177 37.6814 78.9017 39.6692 78.9687H65.9192C67.983 78.9486 70.027 78.5635 71.9567 77.8312C73.3699 77.3103 74.6532 76.4891 75.7182 75.4241C76.7832 74.3591 77.6045 73.0757 78.1254 71.6625C78.8577 69.7328 79.2428 67.6888 79.2629 65.625V39.375C79.2642 37.3091 78.8784 35.2613 78.1254 33.3375V33.3812ZM52.7942 69.2125C50.6015 69.2125 48.4304 68.7799 46.4052 67.9395C44.38 67.0991 42.5405 65.8673 40.9921 64.3149C39.4437 62.7624 38.2168 60.9197 37.3817 58.8923C36.5466 56.8649 36.1197 54.6926 36.1254 52.5C36.1254 49.1927 37.1067 45.9598 38.9451 43.2105C40.7834 40.4612 43.3961 38.3192 46.4525 37.0555C49.5088 35.7919 52.8714 35.4635 56.1145 36.1119C59.3576 36.7603 62.3354 38.3564 64.6709 40.698C67.0065 43.0397 68.5947 46.0217 69.2346 49.2664C69.8745 52.5112 69.5373 55.8729 68.2657 58.926C66.994 61.979 64.8451 64.5861 62.091 66.4172C59.3369 68.2483 56.1015 69.2212 52.7942 69.2125ZM70.2942 39.0687C69.3271 38.9664 68.432 38.5097 67.7816 37.7867C67.1311 37.0638 66.7712 36.1257 66.7712 35.1531C66.7712 34.1806 67.1311 33.2425 67.7816 32.5195C68.432 31.7965 69.3271 31.3399 70.2942 31.2375C71.2613 31.3399 72.1563 31.7965 72.8068 32.5195C73.4573 33.2425 73.8172 34.1806 73.8172 35.1531C73.8172 36.1257 73.4573 37.0638 72.8068 37.7867C72.1563 38.5097 71.2613 38.9664 70.2942 39.0687Z" fill="url(#paint0_angular_50_13)"/>
<defs>
<radialGradient id="paint0_angular_50_13" cx="0" cy="0" r="1" gradientUnits="userSpaceOnUse" gradientTransform="translate(52.7942 52.5) rotate(90) scale(43.75)">
<stop offset="0.0858564" stop-color="#FFC453"/>
<stop offset="0.226504" stop-color="#FF4370"/>
<stop offset="0.386041" stop-color="#8653F1" stop-opacity="0.8"/>
<stop offset="0.540195" stop-color="#FF43EC"/>
<stop offset="0.765525" stop-color="#FF4185"/>
<stop offset="0.944226" stop-color="#FF7B5E"/>
</radialGradient>
</defs>
</svg>
