<svg width="93" height="75" viewBox="0 0 93 75" fill="none" xmlns="http://www.w3.org/2000/svg">
<path d="M92.97 9.46649C89.5008 10.9725 85.821 11.9611 82.053 12.3993C85.9778 10.0942 88.9913 6.44398 90.4103 2.0948C86.6794 4.26437 82.5974 5.79298 78.3407 6.61456C74.8734 2.99485 69.9338 0.732666 64.4667 0.732666C53.9695 0.732666 45.4588 9.07214 45.4588 19.3578C45.4588 20.8178 45.6271 22.2392 45.951 23.6027C30.1542 22.8257 16.1488 15.4108 6.77382 4.14208C5.13805 6.89294 4.20074 10.0928 4.20074 13.5057C4.20074 19.9678 7.55661 25.6685 12.6565 29.0087C9.63805 28.9161 6.68606 28.1172 4.04693 26.6788C4.04585 26.7568 4.04585 26.8348 4.04585 26.9132C4.04585 35.9375 10.5976 43.4656 19.2926 45.1767C16.4936 45.9226 13.5577 46.0317 10.7091 45.4958C13.1276 52.8955 20.1474 58.2802 28.4645 58.4309C21.9594 63.4263 13.7635 66.4041 4.85867 66.4041C3.32423 66.4041 1.8115 66.3158 0.324463 66.1438C8.73603 71.4285 18.7269 74.512 29.4608 74.512C64.4225 74.512 83.5404 46.1306 83.5404 21.5179C83.5404 20.71 83.5224 19.9068 83.4854 19.1082C87.2066 16.4721 90.4183 13.2072 92.97 9.46649" fill="#55ACEE"/>
</svg>
