<svg width="109" height="79" viewBox="0 0 109 79" fill="none" xmlns="http://www.w3.org/2000/svg">
<g clip-path="url(#clip0_50_10)">
<path d="M105.791 12.9391C105.171 10.6116 103.962 8.48963 102.284 6.78459C100.605 5.07956 98.5166 3.85091 96.2255 3.22099C87.8377 0.897095 54.08 0.897095 54.08 0.897095C54.08 0.897095 20.3205 0.967438 11.9328 3.29134C9.64168 3.92129 7.55295 5.15001 5.87465 6.85512C4.19635 8.56023 2.98703 10.6822 2.36713 13.0098C-0.169961 28.1499 -1.15414 51.2199 2.43679 65.7543C3.05676 68.0819 4.26611 70.2038 5.9444 71.9088C7.6227 73.6138 9.71139 74.8425 12.0025 75.4724C20.3902 77.7963 54.1488 77.7963 54.1488 77.7963C54.1488 77.7963 87.907 77.7963 96.2943 75.4724C98.5854 74.8426 100.674 73.6139 102.353 71.9089C104.031 70.2039 105.24 68.0819 105.86 65.7543C108.536 50.5928 109.361 27.5374 105.791 12.9395V12.9391Z" fill="#FF0000"/>
<path d="M43.3325 55.8248L71.3371 39.3465L43.3325 22.8682V55.8248Z" fill="white"/>
</g>
<defs>
<clipPath id="clip0_50_10">
<rect width="108.088" height="77.2059" fill="white" transform="translate(0.0881348 0.897095)"/>
</clipPath>
</defs>
</svg>
